<svg width="162" height="155" viewBox="0 0 162 155" fill="none" xmlns="http://www.w3.org/2000/svg">
<g clip-path="url(#clip0_103_3)">
<g filter="url(#filter0_d_103_3)">
<path d="M3.77841 47.4547V25.1819H92.2727V47.4547H61.6477V127H34.4034V47.4547H3.77841Z" fill="#0085FF"/>
<path d="M100.526 80.7386L72.9885 128.483L53.4185 64.6208L53.3779 64.4251L53.2559 63.8382C51.1217 58.8523 47.547 55.5887 42.5317 54.0474L79.0253 57.8335C70.561 60.5713 66.2139 62.9066 65.9841 64.8396C65.9641 65.0077 65.9862 65.1802 66.0504 65.357L66.1723 65.9439L78.8044 104.839L106.222 58.1026L121.582 109.532L142.183 73.8935L142.447 73.2829C142.556 73.0815 142.626 72.8548 142.656 72.6026C142.946 70.1654 139.243 67.08 131.548 63.3464L161.988 66.4406C156.691 66.912 152.406 69.4452 149.132 74.0402L148.883 74.5249L115.417 132.885L100.526 80.7386Z" fill="#00D1FF"/>
</g>
</g>
<defs>
<filter id="filter0_d_103_3" x="-6.52168" y="18.8819" width="179.11" height="132.266" filterUnits="userSpaceOnUse" color-interpolation-filters="sRGB">
<feFlood flood-opacity="0" result="BackgroundImageFix"/>
<feColorMatrix in="SourceAlpha" type="matrix" values="0 0 0 0 0 0 0 0 0 0 0 0 0 0 0 0 0 0 127 0" result="hardAlpha"/>
<feOffset dy="4"/>
<feGaussianBlur stdDeviation="5.15"/>
<feComposite in2="hardAlpha" operator="out"/>
<feColorMatrix type="matrix" values="0 0 0 0 0 0 0 0 0 0 0 0 0 0 0 0 0 0 0.25 0"/>
<feBlend mode="normal" in2="BackgroundImageFix" result="effect1_dropShadow_103_3"/>
<feBlend mode="normal" in="SourceGraphic" in2="effect1_dropShadow_103_3" result="shape"/>
</filter>
<clipPath id="clip0_103_3">
<rect width="162" height="155" fill="white"/>
</clipPath>
</defs>
</svg>
