<svg width="1758" height="1734" viewBox="0 0 1758 1734" fill="none" xmlns="http://www.w3.org/2000/svg">
<path d="M867 0L1148.51 46.9764L1399.52 182.815L1592.82 392.796L1707.47 654.164L1731.04 938.596L1660.98 1215.27L1504.87 1454.2L1279.65 1629.5L1009.7 1722.18H724.297L454.354 1629.5L229.127 1454.2L73.0245 1215.27L2.96124 938.596L26.53 654.164L141.177 392.796L334.478 182.815L585.486 46.9764L867 0Z" fill="url(#paint0_linear_112_11)"/>
<path d="M580.184 721.461C555.814 771.479 538.016 824.86 526.788 881.604C515.985 938.77 510.678 994.436 510.867 1048.6C511.035 1096.84 514.989 1138.51 522.729 1173.61C530.892 1208.71 541.784 1237.66 555.405 1260.46C569.027 1283.27 585.166 1300.14 603.824 1311.08C622.483 1322.02 642.603 1327.45 664.184 1327.38C693.384 1327.28 719.374 1317.25 742.156 1297.28C765.361 1277.31 782.606 1247 793.89 1206.33C805.598 1166.09 810.075 1115.08 807.32 1053.31C804.567 991.957 792.254 919.635 770.381 836.343L918.918 836.473L1161.42 1206.35L1159.59 681.407L1336.05 680.807L1338.82 1474.89L1166.17 1475.48L958.098 1149.92C958.306 1209.58 950.875 1262.93 935.805 1309.95C920.735 1356.98 899.926 1396.62 873.378 1428.87C846.83 1461.12 815.389 1485.77 779.055 1502.82C742.721 1519.87 703.607 1528.47 661.713 1528.61C612.202 1528.78 567.095 1517.93 526.394 1496.06C486.117 1474.62 451.518 1443.21 422.597 1401.83C394.1 1360.46 371.917 1309.75 356.05 1249.72C340.184 1190.1 332.119 1122.42 331.855 1046.67C331.574 966.269 339.779 891.973 356.468 823.784C373.58 755.594 397.263 690.767 427.518 629.303L580.184 721.461Z" fill="#6D4A16"/>
<rect x="1159" y="210" width="179" height="1268" fill="#6D4A16"/>
<rect width="178.748" height="1366.07" transform="matrix(-0.00160499 0.999999 -0.999999 -0.00163678 1550.11 403.088)" fill="#6D4A16"/>
<defs>
<linearGradient id="paint0_linear_112_11" x1="286" y1="-64" x2="1573" y2="1614.5" gradientUnits="userSpaceOnUse">
<stop stop-color="#DFAE00"/>
<stop offset="1" stop-color="#6F5600"/>
</linearGradient>
</defs>
</svg>
